<svg width="165" height="100" viewBox="0 0 165 100" fill="none" xmlns="http://www.w3.org/2000/svg">
<path d="M21.7381 73.9874C21.2051 74.4199 20.7706 74.835 20.4346 75.2327C20.0869 75.5648 19.9189 75.7637 19.9305 75.8293C19.9537 75.9606 20.3128 76.2696 21.0078 76.7563C22.6413 77.9576 24.4582 78.8557 26.4585 79.4507C28.5246 80.0342 30.6215 80.4091 32.7494 80.5754C34.9429 80.7302 37.1075 80.7209 39.2432 80.5474C41.4329 80.2967 43.4798 80.0034 45.3837 79.6677C46.1059 79.5404 46.9922 79.3841 48.0427 79.1989C49.1472 78.9364 50.246 78.6411 51.339 78.313C52.4319 77.9849 53.4477 77.6027 54.3862 77.1665C55.3903 76.7186 56.1801 76.207 56.7556 75.6317C56.9951 75.4541 57.1419 75.3267 57.196 75.2494C57.2616 75.2378 57.3215 75.1934 57.3755 75.1162C57.5069 75.0931 57.6343 75.2398 57.7578 75.5565C57.8698 75.8076 57.9161 76.0702 57.8967 76.3444C57.9429 77.7578 57.2418 78.9646 55.7934 79.9646C54.3335 80.899 51.8927 81.8371 48.4709 82.7789C47.8259 82.9603 46.9126 83.1552 45.7308 83.3636C44.6147 83.5604 43.4329 83.7688 42.1855 83.9887C40.9921 84.1315 39.8374 84.3012 38.7213 84.498C37.6592 84.6176 36.8598 84.6909 36.323 84.7178C34.7667 84.7215 33.1601 84.6324 31.5034 84.4507C29.8467 84.2689 28.1996 83.9501 26.5622 83.4942C24.9905 83.0267 23.4613 82.4163 21.9746 81.663C20.5535 80.8981 19.2947 79.9016 18.198 78.6734C18.0436 78.5652 17.9509 78.6154 17.92 78.8239C17.889 79.0325 17.8021 79.6909 17.659 80.7993C17.1874 84.2672 16.8877 87.3663 16.7598 90.0966C16.632 92.827 16.6839 94.8487 16.9154 96.1618C16.9539 96.7642 17.0176 97.1253 17.1064 97.2451C17.2068 97.4304 17.3458 97.6429 17.5234 97.8823C18.0099 98.3381 18.2648 98.6316 18.2879 98.763C18.3111 98.8943 18.1257 98.9946 17.7318 99.0641C17.4151 99.1876 17.1139 99.2069 16.8281 99.1219C15.7082 98.9132 14.793 98.3299 14.0825 97.3721C13.3836 96.4799 12.8759 95.5201 12.5594 94.4928C12.0229 92.2181 11.9346 88.6458 12.2944 83.776C12.7199 78.8947 13.5278 73.3027 14.7182 67.0003C14.6409 66.9462 14.6023 66.9192 14.6023 66.9192C14.5251 66.8651 14.3436 66.7956 14.0578 66.7106C13.4863 66.5406 12.88 66.1736 12.239 65.6097C11.6521 64.9685 11.1849 64.2385 10.8375 63.4198C9.94178 61.4115 9.86876 58.8858 10.6184 55.8427C11.368 52.7996 12.8747 49.2508 15.1383 45.1961C16.5946 42.7054 18.3135 40.1683 20.295 37.585C22.3422 34.9901 24.4685 32.652 26.6739 30.5708C26.9133 30.3931 27.0872 30.2271 27.1953 30.0726C27.3575 29.8409 27.4927 29.6479 27.6009 29.4934C27.6627 29.0763 27.7806 28.7848 27.9544 28.6187C28.1166 28.387 28.3348 28.2809 28.609 28.3002C28.8832 28.3196 29.086 28.3177 29.2173 28.2945C29.337 28.2057 29.6035 27.9895 30.0168 27.6458C31.0055 26.7268 32.1584 25.7789 33.4755 24.802C34.8582 23.8136 36.3239 22.912 37.8726 22.0974C39.4098 21.2171 40.9373 20.4739 42.4551 19.8678C43.9729 19.2617 45.3883 18.8429 46.7014 18.6113C49.3932 18.1367 51.5288 18.5386 53.1081 19.8171C54.4442 20.8677 55.3612 22.2292 55.8592 23.9015C56.3455 25.5081 56.3955 27.327 56.009 29.3583C55.5375 31.6754 54.2878 34.5697 52.2598 38.0413C50.2975 41.5013 47.7076 45.2412 44.4901 49.261C43.7098 50.2109 42.6959 51.3712 41.4483 52.742C40.2664 54.1013 38.9705 55.5821 37.5607 57.1846C36.205 58.7099 34.7623 60.3181 33.2328 62.0094C31.6917 63.6351 30.2104 65.2163 28.789 66.7532C27.3561 68.2243 26.01 69.6125 24.7508 70.9176C23.5458 72.1456 22.5415 73.1688 21.7381 73.9874ZM19.1317 71.2992C19.1008 71.5077 19.1182 71.6062 19.1838 71.5946C19.2379 71.5174 19.5469 71.1583 20.1108 70.5173C20.5782 70.0964 21.2947 69.3608 22.2603 68.3105C23.2915 67.2486 24.4039 66.0709 25.5974 64.7774C26.7794 63.4181 28.0212 62.0145 29.3228 60.5665C30.6245 59.1184 31.8064 57.7592 32.8686 56.4888C33.6064 55.6818 34.6473 54.4828 35.9915 52.8919C37.4013 51.2894 38.9077 49.4668 40.5106 47.4241C42.1793 45.3698 43.8305 43.217 45.4644 40.9657C47.164 38.7029 48.6666 36.4748 49.9722 34.2814C51.3435 32.0765 52.4038 30.0279 53.1533 28.1357C53.9028 26.2434 54.1675 24.6736 53.9476 23.4262C53.8781 23.0323 53.4804 22.6962 52.7544 22.4181C52.0825 22.0627 51.2368 21.8733 50.2172 21.85C49.6688 21.8113 48.7709 21.9019 47.5235 22.1219C46.3417 22.3303 45.3357 22.5754 44.5053 22.8572C42.7249 23.5096 40.8537 24.4149 38.8917 25.5732C36.9838 26.6543 35.0449 27.9439 33.0751 29.442L31.5572 30.6236L31.9973 31.9676L30.8848 34.2961C28.6828 39.0846 26.813 43.6452 25.2754 47.9781C23.8034 52.2993 22.4434 56.8716 21.1953 61.6949C20.9519 62.6179 20.72 63.6065 20.4998 64.6608C20.2679 65.6494 20.0303 66.6052 19.7868 67.5281C19.6091 68.4395 19.4468 69.2466 19.2999 69.9495C19.2187 70.6408 19.1626 71.0907 19.1317 71.2992ZM15.7905 62.1402C16.6445 58.5372 17.6356 54.9439 18.7638 51.3602C19.8919 47.7765 21.275 43.9109 22.913 39.7635C23.0637 39.4661 23.0521 39.4005 22.8783 39.5665C22.7702 39.721 22.3588 40.2674 21.6442 41.2057C20.9837 42.0668 20.302 42.9994 19.599 44.0034C18.4208 45.7681 17.3528 47.5811 16.3947 49.4424C15.4367 51.3037 14.6371 53.1032 13.9958 54.841C13.3429 56.5131 12.8754 58.0848 12.5932 59.5562C12.3111 61.0275 12.2569 62.2556 12.4305 63.2404C12.5579 63.9626 12.7374 64.4048 12.9691 64.567C13.2664 64.7177 13.8148 64.7564 14.6142 64.6831L15.2051 64.5789L15.7905 62.1402ZM73.7188 58.5262C74.3985 58.5417 74.887 58.6248 75.1843 58.7755C74.9796 59.1501 74.7594 59.6289 74.5238 60.212C74.2881 60.7951 73.9713 61.4941 73.5734 62.3089C72.7892 64.0042 72.1229 65.4079 71.5743 66.52C71.0914 67.6206 70.6453 68.5455 70.2358 69.2946C69.892 70.0322 69.5636 70.6655 69.2507 71.1945C68.9263 71.6579 68.6076 72.1541 68.2947 72.6832C68.0243 73.0693 67.7211 73.4612 67.3851 73.859C67.1031 74.1795 66.8752 74.4227 66.7014 74.5888C66.4079 74.8436 66.1684 75.0212 65.983 75.1216C65.8633 75.2104 65.6123 75.3224 65.2299 75.4575C64.4421 75.5964 63.7006 75.4225 63.0055 74.9358C62.2989 74.3835 61.7834 73.7636 61.4591 73.0761C61.2468 72.6397 61.0769 72.0604 60.9496 71.3382C60.8763 70.5388 60.8417 69.7664 60.8456 69.021C60.8766 68.8125 60.8631 68.5441 60.8052 68.2158L60.8516 67.903C60.84 67.8374 60.7318 67.9918 60.5271 68.3664C60.3224 68.741 60.0964 69.187 59.8492 69.7045C58.9877 71.3456 58.1457 72.7126 57.3229 73.8054C56.4886 74.8326 55.8204 75.4581 55.3183 75.682C54.4996 76.0295 53.6982 75.9 52.9144 75.2936C51.8447 74.6022 51.1671 73.6385 50.8815 72.4027C50.5843 71.1012 50.6 69.2706 50.9286 66.9111C51.0329 66.3511 51.2474 65.264 51.572 63.6498C51.9623 62.024 52.4125 60.3538 52.9225 58.6392C53.4209 56.8589 53.9212 55.2814 54.4235 53.9066C54.9257 52.5318 55.3352 51.7827 55.6519 51.6592C55.9686 51.5356 56.4629 51.6515 57.1348 52.0069C57.8067 52.3623 58.2817 52.7524 58.5597 53.1773C58.7373 53.4168 58.8435 53.635 58.8782 53.8319C58.9129 54.0289 58.8993 54.3359 58.8375 54.753C58.7757 55.1701 58.6443 55.7686 58.4433 56.5487C58.2965 57.2516 58.0376 58.2788 57.6667 59.6304C56.9673 62.1907 56.4534 64.0753 56.125 65.284C55.785 66.4271 55.5319 67.4871 55.3657 68.4642C54.8401 70.8585 54.6102 72.0498 54.6758 72.0383C54.8071 72.0151 55.1702 71.5788 55.7651 70.7292C56.414 69.8025 56.9432 68.9645 57.3527 68.2153C57.9784 67.1573 58.6197 65.9949 59.2764 64.7283C59.9215 63.3961 60.5396 62.1024 61.1306 60.8474C61.7217 59.5923 62.2528 58.3817 62.7242 57.2155C63.1955 56.0493 63.5644 55.0703 63.831 54.2787C64.8201 51.058 65.4672 49.353 65.7723 49.1639C65.8805 49.0094 65.9732 48.9592 66.0504 49.0133C66.116 49.0017 66.2918 49.0384 66.5775 49.1234C67.2263 49.3475 67.8113 49.7859 68.3326 50.4386C68.5102 50.6781 68.5951 50.9678 68.5873 51.3076C68.6336 51.5702 68.6104 52.0143 68.5176 52.6399C68.4249 53.2656 68.2355 54.1113 67.9496 55.1771C67.7293 56.2314 67.4028 57.6429 66.97 59.4116C66.6222 60.8945 66.2687 62.3446 65.9093 63.7618C65.604 65.1019 65.3934 66.019 65.2775 66.5134C65.15 66.942 65.0399 67.4691 64.9471 68.0948C64.8543 68.7204 64.7615 69.346 64.6688 69.9716C64.576 70.5972 64.4717 71.1572 64.3557 71.6515C64.3055 72.1342 64.2977 72.4741 64.3324 72.671L64.3034 73.0823L64.8248 72.5842C65.2265 72.1749 65.7518 71.5069 66.4008 70.5801C67.0381 69.5877 67.5828 68.6454 68.0347 67.7534C68.197 67.5217 68.4558 67.0699 68.8112 66.398C69.155 65.6604 69.5529 64.8456 70.0048 63.9536C70.4568 63.0615 70.9088 62.1695 71.3607 61.2775C71.8011 60.3198 72.1932 59.4721 72.537 58.7346C72.6568 58.6458 72.8209 58.6168 73.0294 58.6477C73.292 58.6014 73.5218 58.5609 73.7188 58.5262ZM93.7328 41.2889C94.3043 41.4589 94.8121 41.8433 95.2561 42.4419C95.7001 43.0406 95.9743 43.6353 96.0784 44.2262C96.1479 44.6202 96.1614 44.8886 96.1189 45.0314C96.142 45.1628 96.0667 45.3114 95.8929 45.4775C95.4371 45.964 94.7554 46.8966 93.8476 48.2751C92.9399 49.6537 92.0167 51.1365 91.078 52.7236C90.205 54.2992 89.4633 55.8516 88.8529 57.3808C88.231 58.8444 87.9894 59.9701 88.1284 60.7579C88.1322 61.1634 88.1843 61.4588 88.2846 61.6442C88.385 61.8296 88.7287 62.2429 89.3156 62.884C90.5898 64.3517 91.557 65.8059 92.2172 67.2465C92.4411 67.7485 92.582 68.1637 92.6399 68.492C92.7519 68.743 92.8387 69.2354 92.9004 69.9692C93.0509 70.8227 93.0797 71.5623 92.987 72.1879C92.9599 72.8019 92.7841 73.3406 92.4596 73.804C92.2008 74.2558 91.8377 74.6921 91.3704 75.113C90.903 75.5339 90.3372 75.9722 89.6729 76.4278C88.3018 77.4819 87.3053 78.1653 86.6835 78.478C86.0617 78.7907 85.5364 78.8834 85.1078 78.7559C84.5362 78.5859 84.0768 78.0915 83.7293 77.2727C83.6058 76.956 83.544 76.7977 83.544 76.7977C83.5324 76.732 83.5807 76.6219 83.6889 76.4675C84.7124 75.7455 85.7397 74.8535 86.771 73.7916C87.8564 72.6525 88.6347 71.4998 89.106 70.3336C89.3958 69.6733 89.5426 68.9704 89.5466 68.2251C89.6162 67.4682 89.539 66.8387 89.3151 66.3366C89.292 66.2053 89.153 65.9928 88.8981 65.6993C88.6974 65.3285 88.4696 64.9964 88.2147 64.7028C88.1259 64.5831 87.9541 64.3765 87.6992 64.0829C87.4328 63.7237 87.1336 63.3703 86.8015 63.0227C86.5235 62.5979 86.2513 62.2059 85.9849 61.8467C85.7841 61.4759 85.6721 61.2249 85.649 61.0935C85.5833 61.1051 85.4752 61.2596 85.3245 61.5569C85.1739 61.8543 84.9633 62.196 84.693 62.5822C84.2719 63.2657 83.7485 64.1365 83.1227 65.1945C82.5626 66.241 81.9851 67.189 81.3903 68.0386C81.2821 68.193 81.2396 68.3359 81.2628 68.4672C81.2743 68.5329 81.3747 68.7183 81.5639 69.0234C81.7647 69.3942 81.8728 69.8151 81.8881 70.2863C81.9692 70.7458 81.9459 71.19 81.8184 71.6186C81.6369 72.1245 81.183 72.8138 80.4568 73.6865C79.7191 74.4935 78.8829 75.3179 77.9482 76.1597C77.0135 77.0014 76.0614 77.7447 75.092 78.3895C74.1882 79.0227 73.4409 79.3914 72.85 79.4956C71.8652 79.6693 71.0698 78.9972 70.4637 77.4794C70.3633 77.294 70.3459 77.1955 70.4116 77.1839C70.4656 77.1067 70.6452 76.9735 70.9503 76.7843C71.4524 76.5604 72.024 76.155 72.6652 75.5681C73.372 74.9696 73.9746 74.3556 74.4728 73.7262C74.7548 73.4057 75.085 72.9751 75.4636 72.4345C75.8962 71.8167 76.3288 71.1988 76.7614 70.581L78.2215 68.4958L77.677 68.2871C77.2368 68.094 76.6595 67.8912 75.945 67.6787C73.3384 66.7167 71.6935 64.8743 71.0103 62.1516C70.7788 60.8385 71.0107 59.2745 71.7061 57.4595C72.4556 55.5673 73.3866 53.7446 74.499 51.9914C75.6656 50.1611 76.8997 48.5219 78.2013 47.0738C79.4914 45.5601 80.6328 44.5466 81.6253 44.0331C81.942 43.9095 82.1332 43.842 82.1988 43.8304C82.2645 43.8188 82.4402 43.8555 82.726 43.9405C83.3747 44.1646 83.9868 44.5644 84.5621 45.1399C85.1375 45.7154 85.5217 46.3585 85.7147 47.0691C85.8382 47.3858 85.8478 47.8241 85.7434 48.3841C85.6391 48.944 85.5386 49.3341 85.442 49.5542C85.3339 49.7086 85.1427 49.7762 84.8685 49.7568C84.3201 49.7181 83.907 49.4864 83.629 49.0615C83.5401 48.9418 83.4417 48.9592 83.3335 49.1136C83.2138 49.2024 82.8662 49.5345 82.2907 50.1098C80.5217 51.9788 78.8974 54.0929 77.418 56.4523C76.0042 58.8002 75.0694 60.7928 74.6134 62.4302C74.4125 63.2102 74.3294 63.6987 74.3641 63.8957C74.4529 64.0154 74.8603 64.2144 75.5863 64.4925C76.4436 64.7475 77.0982 65.0045 77.55 65.2633C77.9902 65.4564 78.4362 65.6824 78.8881 65.9412L79.5831 66.4279L80.9274 64.2616C81.2943 63.6553 81.7154 62.9718 82.1905 62.2111C82.6656 61.4504 83.0538 60.7726 83.3551 60.178C83.9268 59.1971 84.261 58.5966 84.3576 58.3765C84.5082 58.0792 84.6029 57.6563 84.6416 57.1079C84.6996 56.2854 85.001 55.1152 85.5458 53.5976C86.1561 52.0684 86.8978 50.516 87.7709 48.9405C88.6439 47.3649 89.54 45.9207 90.4593 44.6078C91.3671 43.2292 92.1743 42.2407 92.8812 41.6422C93.2288 41.3101 93.5126 41.1924 93.7328 41.2889ZM120.623 31.6734C120.716 32.1986 120.735 32.4999 120.681 32.5771C120.627 32.6543 119.937 32.7759 118.613 32.9417C118.153 33.0228 117.464 33.1443 116.545 33.3064C115.68 33.3912 114.722 33.5263 113.671 33.7115C112.621 33.8967 111.538 34.0877 110.422 34.2845C109.305 34.4813 108.255 34.6666 107.27 34.8402L105.399 35.1702L104.298 38.7152C103.382 41.5845 102.468 44.6565 101.557 47.9313C100.645 51.206 99.872 54.1178 99.2383 56.6665C99.0914 57.3694 98.9078 58.2479 98.6876 59.3022C98.5214 60.2792 98.3166 61.2292 98.0731 62.1522C97.8954 63.0636 97.7659 63.8649 97.6847 64.5562C97.5919 65.1818 97.5455 65.4946 97.5455 65.4946C97.5455 65.4946 97.7135 65.2957 98.0496 64.898C98.3856 64.5003 98.7699 63.9925 99.2026 63.3746C99.6352 62.7568 100.095 62.1003 100.582 61.4053C101.057 60.6445 101.478 59.961 101.845 59.3548C102.158 58.8257 102.525 58.2195 102.946 57.536C103.355 56.7868 103.77 56.0705 104.191 55.387C104.612 54.7035 104.979 54.0972 105.292 53.5682C105.605 53.0392 105.81 52.6646 105.906 52.4445C106.015 52.29 106.173 52.2283 106.381 52.2592C106.59 52.2901 106.893 52.4736 107.291 52.8096C107.677 53.08 107.887 53.3137 107.922 53.5106C108.003 53.9702 106.269 57.1869 102.719 63.1608C101.317 65.5743 100.258 67.2502 99.5437 68.1885C98.8832 69.0497 98.2633 69.5651 97.6839 69.735C97.5526 69.7581 97.3885 69.7871 97.1915 69.8218C97.0487 69.7793 96.9116 69.7696 96.7803 69.7928C95.6488 69.5184 94.7413 68.5953 94.058 67.0234C93.309 65.4631 93.2572 62.866 93.9027 59.232C94.0689 58.255 94.2988 57.0636 94.5925 55.6579C94.9519 54.2407 95.3537 52.6805 95.7981 50.9775C96.2309 49.2088 96.7177 47.3629 97.2587 45.4397C97.8652 43.505 98.4448 41.6089 98.9973 39.7514C99.3605 38.7396 99.5942 37.9538 99.6986 37.3938C99.8261 36.9652 99.9323 36.6079 100.017 36.3222C99.9942 36.1909 99.6659 36.2488 99.0325 36.4958C97.7851 36.7158 96.4179 37.0245 94.9311 37.4221C93.4982 37.7424 92.0442 38.1342 90.5689 38.5974C89.1476 38.9834 87.7322 39.4023 86.3225 39.8539C84.9129 40.3055 83.6017 40.7398 82.389 41.1567C80.8481 41.6315 79.9134 41.8979 79.5852 41.9558C79.2453 41.948 78.9808 41.7916 78.7916 41.4864C78.614 41.247 78.5021 40.9959 78.4557 40.7333C78.3322 40.4166 78.3303 40.2139 78.45 40.1251C78.7436 39.8702 79.852 39.4378 81.7753 38.8279C83.6986 38.218 85.8575 37.6004 88.252 36.9751C90.7005 36.2726 93.0293 35.6589 95.2384 35.134C97.5015 34.5318 99.0869 34.1169 99.9945 33.8892L100.881 33.7329L101.889 30.8134C102.229 29.6704 102.463 28.8845 102.59 28.4559C102.784 28.0156 103.011 27.7724 103.274 27.7261C103.602 27.6682 104.043 27.8613 104.595 28.3055C105.135 28.6841 105.495 28.9931 105.672 29.2325C106.093 29.6999 106.344 30.1633 106.425 30.6229C106.494 31.0168 106.435 31.6367 106.245 32.4824C106.203 32.6253 106.411 32.6562 106.871 32.5752C107.33 32.4941 108.512 32.2857 110.416 31.95C111.598 31.7416 112.851 31.5545 114.176 31.3886C115.554 31.1455 116.611 30.9931 117.344 30.9314C118.866 30.7308 119.737 30.6788 119.957 30.7754C120.231 30.7948 120.453 31.0941 120.623 31.6734ZM120.582 43.3581C120.872 43.8486 121.086 44.4877 121.225 45.2756C121.429 46.0518 121.53 46.8127 121.526 47.558C121.448 48.6548 121.189 50.2574 120.749 52.3659C120.297 54.4088 119.68 56.4806 118.9 58.5814C118.108 60.6165 117.15 62.4778 116.026 64.1653C114.956 65.7756 113.743 66.7679 112.388 67.1423C112.125 67.1886 111.862 67.2349 111.6 67.2812C111.403 67.316 111.233 67.3121 111.09 67.2696C110.125 67.169 109.09 66.6746 107.985 65.7862C106.946 64.8862 106.197 63.9013 105.738 62.8315C105.02 61.0627 104.827 58.6258 105.16 55.5209C105.558 52.4044 106.42 49.0369 107.745 45.4185C108.119 44.4724 108.403 43.7792 108.597 43.339C108.778 42.8331 109.004 42.3871 109.275 42.001C109.545 41.6148 109.806 41.3657 110.057 41.2538C110.373 41.1302 110.823 41.1863 111.406 41.422L112.362 41.6596L112.802 41.2773C113.096 41.0225 113.604 40.8314 114.326 40.7041C115.114 40.5651 115.782 40.515 116.33 40.5537C117.165 40.6774 117.968 41.0097 118.74 41.5504C119.501 42.0255 120.115 42.6281 120.582 43.3581ZM118.056 47.459C118.222 46.482 118.251 45.4953 118.143 44.4989C118.035 43.5025 117.865 42.9232 117.634 42.761C117.479 42.6528 117.106 42.6508 116.515 42.755C115.99 42.8476 115.575 42.9885 115.27 43.1777C114.899 43.3785 114.615 43.4962 114.418 43.531C114.233 43.6314 114.053 43.7646 113.88 43.9306C113.771 44.0851 113.6 44.4539 113.364 45.037C112.259 47.6011 111.39 50.1576 110.756 52.7063C110.111 55.1894 109.744 57.522 109.654 59.7039C109.635 59.9781 109.633 60.3508 109.648 60.822C109.729 61.2815 109.772 61.7141 109.776 62.1196C109.78 62.5251 109.81 62.892 109.868 63.2202C109.915 63.4828 109.971 63.6084 110.036 63.5968C110.09 63.5196 110.183 63.4694 110.314 63.4462C110.476 63.2145 110.617 63.0543 110.737 62.9655C111.432 62.3013 112.174 61.3244 112.962 60.0346C113.816 58.7332 114.586 57.345 115.274 55.8699C116.016 54.3175 116.626 52.7883 117.105 51.2822C117.65 49.7645 117.967 48.4901 118.056 47.459ZM142.927 46.4244L143.159 46.5866C142.719 47.5443 142.203 48.6507 141.612 49.9057C141.087 51.1492 140.534 52.4312 139.955 53.7519C139.364 55.007 138.788 56.1577 138.228 57.2042C137.733 58.2392 137.363 59.0153 137.115 59.5328C136.706 60.282 136.291 60.9983 135.87 61.6818C135.437 62.2996 135.074 62.736 134.78 62.9908C134.541 63.1684 134.257 63.2862 133.929 63.344C133.6 63.4019 133.293 63.3884 133.008 63.3034C132.228 63.1024 131.527 62.5829 130.905 61.7448C130.272 60.841 129.934 59.8852 129.892 58.8772C129.695 56.6102 130.149 53.6193 131.254 49.9043L131.985 47.1354L131.434 48.0448C129.997 50.2613 128.757 52.4431 127.714 54.5902C126.66 56.6716 125.451 59.2203 124.087 62.2362C123.453 63.6342 123.061 64.4818 122.911 64.7791C122.814 64.9993 122.634 65.1325 122.372 65.1788C122.043 65.2367 121.642 65.0705 121.167 64.6804C120.746 64.2131 120.447 63.8597 120.269 63.6202C120.08 63.3151 119.974 63.0969 119.951 62.9656C119.982 62.757 120.065 62.2685 120.2 61.5C120.258 60.6774 120.418 59.6676 120.681 58.4704C120.944 57.2733 121.228 56.0047 121.533 54.6646C121.893 53.2474 122.252 51.8301 122.611 50.4128C122.959 48.9299 123.33 47.5783 123.724 46.358C123.979 45.5007 124.261 44.6048 124.57 43.6702C124.933 42.6585 125.248 41.7568 125.515 40.9651C125.781 40.1735 126 39.4919 126.17 38.9203C126.405 38.3372 126.556 38.0399 126.622 38.0283C126.861 37.8507 127.245 37.9183 127.774 38.2312C128.303 38.5441 128.746 38.94 129.101 39.4189C129.545 40.0176 129.759 40.6568 129.744 41.3364C129.716 41.9505 129.459 43.1805 128.973 45.0264C128.857 45.5207 128.762 45.9436 128.689 46.295C128.604 46.5807 128.54 46.7951 128.497 46.938C128.551 46.8607 128.681 46.6348 128.886 46.2602C129.156 45.8741 129.415 45.4223 129.662 44.9048C130.191 44.0669 130.774 43.1517 131.412 42.1593C132.049 41.1668 132.638 40.2845 133.179 39.5122C133.774 38.6626 134.293 37.9618 134.738 37.4096C135.182 36.8574 135.469 36.5697 135.601 36.5466C135.929 36.4887 136.358 36.6162 136.887 36.9291C137.416 37.242 137.819 37.6108 138.097 38.0357C138.364 38.3949 138.532 38.7714 138.601 39.1654C138.725 39.4821 138.74 39.9532 138.647 40.5788C138.554 41.2044 138.365 42.0502 138.079 43.116C137.847 44.1046 137.476 45.4562 136.966 47.1708C134.637 54.6896 133.578 58.6672 133.79 59.1037C133.79 59.1037 133.898 58.9492 134.115 58.6403C134.331 58.3314 134.601 57.9452 134.926 57.4818C135.239 56.9528 135.546 56.3909 135.847 55.7962C136.203 55.1243 136.537 54.5238 136.85 53.9948C137.302 53.1028 137.883 51.9848 138.594 50.641C139.293 49.2315 139.911 47.9378 140.448 46.76C140.861 46.4164 141.375 46.2581 141.989 46.2852C142.317 46.2274 142.63 46.2737 142.927 46.4244ZM158.765 43.0226C158.788 43.1539 158.595 43.5941 158.185 44.3433C157.776 45.0924 157.225 46.0018 156.534 47.0715C155.897 48.0639 155.178 49.1722 154.379 50.3963C153.567 51.5547 152.783 52.6746 152.026 53.7558C151.335 54.8254 150.686 55.7522 150.079 56.5361C149.539 57.3084 149.187 57.8104 149.025 58.0421C148.635 58.517 148.119 59.048 147.478 59.6349C146.902 60.2102 146.429 60.5983 146.059 60.7991C145.078 61.3782 144.143 61.6445 143.255 61.5981C142.081 61.4666 141.038 60.7366 140.127 59.4079C139.706 58.9406 139.416 58.4501 139.258 57.9364C139.1 57.4228 138.984 56.7663 138.911 55.9668C138.745 54.6422 138.78 53.1129 139.016 51.3789C139.24 49.5793 139.601 47.7894 140.1 46.0091C140.664 44.2173 141.344 42.5065 142.14 40.8769C142.924 39.1817 143.754 37.749 144.631 36.579C145.856 35.0769 146.927 34.2448 147.846 34.0827C149.028 33.8743 150.04 34.2375 150.882 35.1722C151.712 36.0412 152.22 37.001 152.405 38.0514C152.567 38.9706 152.582 40.0172 152.451 41.1912C152.308 42.2995 152.072 43.458 151.744 44.6668C151.404 45.8099 150.959 46.9375 150.411 48.0496C149.916 49.0845 149.333 49.9997 148.661 50.7952C148.217 51.3474 147.695 51.8455 147.097 52.2895C146.498 52.7335 146.035 52.9845 145.706 53.0424C144.918 53.1813 144.227 53.1001 143.632 52.7988C143.401 52.6366 143.264 52.6269 143.221 52.7698C143.179 52.9127 143.074 53.4726 142.908 54.4497C142.576 56.4037 142.485 57.8075 142.635 58.661C142.682 58.9236 142.803 59.0376 143 59.0028C143.24 58.8252 143.659 58.5144 144.257 58.0704C144.922 57.6148 145.422 57.1881 145.758 56.7904C146.735 55.8057 147.83 54.5295 149.043 52.9618C150.31 51.3168 151.992 48.9554 154.09 45.8778L156.911 41.7247L157.34 41.8522C157.626 41.9372 157.89 42.0937 158.133 42.3216C158.377 42.5494 158.587 42.7831 158.765 43.0226ZM144.125 49.2594C143.87 50.1167 143.793 50.6381 143.893 50.8235C143.982 50.9432 144.326 50.7811 144.925 50.337C145.589 49.8814 146.174 49.169 146.68 48.1997C147.252 47.2189 147.708 46.1569 148.048 45.0138C148.453 43.8592 148.761 42.7219 148.969 41.602C149.166 40.4164 149.294 39.4123 149.352 38.5897L149.346 37.9815L148.86 38.6766C148.469 39.1515 148.048 39.835 147.596 40.7271C147.199 41.5419 146.779 42.4281 146.339 43.3858C145.899 44.3435 145.47 45.3668 145.053 46.4558C144.689 47.4676 144.38 48.4021 144.125 49.2594Z" fill="#151515"/>
</svg>
